<?xml version="1.0" encoding="utf-8"?>
<!-- Generator: Adobe Illustrator 22.1.0, SVG Export Plug-In . SVG Version: 6.00 Build 0)  -->
<svg version="1.1" id="Calque_1" xmlns="http://www.w3.org/2000/svg" x="0px" y="0px"
	 viewBox="0 0 565 565" style="enable-background:new 0 0 565 565;" xml:space="preserve">
     <g fill="#333333">
<path d="M282.5,262.2c27.9,0,54.6-11.1,74.3-30.8c19.7-19.7,30.8-46.4,30.7-74.3c0-27.8-11.1-54.6-30.8-74.2
	c-19.7-19.7-46.4-30.7-74.3-30.7c-27.8,0-54.6,11.1-74.2,30.8c-19.7,19.7-30.7,46.4-30.7,74.3c0,27.8,11.1,54.5,30.8,74.2
	S254.7,262.2,282.5,262.2L282.5,262.2z"/>
<path d="M156.5,507.6h252c11.9,0,23.3-4.7,31.7-13.1c8.4-8.4,13.1-19.8,13.1-31.7v-10.3c-1.1-44.5-19.6-86.9-51.5-118
	c-31.9-31.1-74.7-48.5-119.3-48.5c-44.6,0-87.4,17.4-119.3,48.5c-31.9,31.1-50.4,73.4-51.5,118v10.3c0,11.9,4.7,23.3,13.1,31.7
	C133.2,502.9,144.6,507.6,156.5,507.6L156.5,507.6z"/>
    </g>
</svg>