<?xml version="1.0" encoding="utf-8"?>
<!-- Generator: Adobe Illustrator 22.1.0, SVG Export Plug-In . SVG Version: 6.00 Build 0)  -->
<svg version="1.1" id="Calque_1" xmlns="http://www.w3.org/2000/svg" xmlns:xlink="http://www.w3.org/1999/xlink" x="0px" y="0px"
	 viewBox="0 0 565 565" style="enable-background:new 0 0 565 565;" xml:space="preserve">
<style type="text/css">
	.st0{fill:#333333;}
	.st1{fill:#333333;stroke:#FFFFFF;stroke-width:20;stroke-miterlimit:10;}
</style>
<g>
	<path class="st0" d="M409.4,238.2c21.1,0,41.4-8.4,56.3-23.3c14.9-14.9,23.3-35.2,23.3-56.3c0-21.1-8.4-41.4-23.3-56.2
		c-14.9-14.9-35.2-23.3-56.3-23.3c-21.1,0-41.4,8.4-56.2,23.3c-14.9,14.9-23.3,35.2-23.3,56.3c0,21.1,8.4,41.3,23.3,56.2
		S388.3,238.2,409.4,238.2L409.4,238.2z"/>
	<path class="st0" d="M313.9,424.1h190.9c9,0,17.7-3.6,24-9.9c6.4-6.4,9.9-15,9.9-24v-7.8c-0.8-33.7-14.8-65.8-39-89.4
		c-24.2-23.6-56.6-36.7-90.4-36.7S343.1,269.4,319,293c-24.2,23.6-38.2,55.6-39,89.4v7.8c0,9,3.6,17.7,9.9,24
		C296.2,420.5,304.9,424.1,313.9,424.1L313.9,424.1z"/>
</g>
<g>
	<path class="st0" d="M154.8,240.4c20.9,0,40.9-8.3,55.6-23.1c14.7-14.7,23.1-34.7,23-55.6c0-20.8-8.3-40.9-23.1-55.5
		c-14.7-14.7-34.7-23-55.6-23c-20.8,0-40.9,8.3-55.5,23.1c-14.7,14.7-23,34.7-23,55.6c0,20.8,8.3,40.8,23.1,55.5
		S134,240.4,154.8,240.4L154.8,240.4z"/>
	<path class="st0" d="M60.5,424.1h188.7c8.9,0,17.4-3.5,23.7-9.8c6.3-6.3,9.8-14.8,9.8-23.7v-7.7c-0.8-33.3-14.7-65.1-38.6-88.3
		c-23.9-23.3-55.9-36.3-89.3-36.3c-33.4,0-65.4,13-89.3,36.3c-23.9,23.3-37.7,54.9-38.6,88.3v7.7c0,8.9,3.5,17.4,9.8,23.7
		S51.6,424.1,60.5,424.1L60.5,424.1z"/>
</g>
<g>
	<path class="st1" d="M282,267.6c29.1,0,56.9-11.6,77.5-32.1c20.5-20.5,32.1-48.4,32-77.5c0-29-11.6-56.9-32.1-77.4
		c-20.5-20.5-48.4-32-77.5-32c-29,0-56.9,11.6-77.4,32.1c-20.5,20.5-32,48.4-32,77.5c0,29,11.6,56.8,32.1,77.4S253,267.6,282,267.6
		L282,267.6z"/>
	<path class="st1" d="M150.6,523.5h262.8c12.4,0,24.3-4.9,33.1-13.7c8.8-8.8,13.7-20.6,13.7-33.1V466c-1.1-46.4-20.4-90.6-53.7-123
		s-77.9-50.6-124.4-50.6c-46.5,0-91.1,18.1-124.4,50.6s-52.6,76.5-53.7,123v10.7c0,12.4,4.9,24.3,13.7,33.1
		C126.3,518.6,138.2,523.5,150.6,523.5L150.6,523.5z"/>
</g>
</svg>
