<?xml version="1.0" encoding="utf-8"?>
<!-- Generator: Adobe Illustrator 22.1.0, SVG Export Plug-In . SVG Version: 6.00 Build 0)  -->
<svg version="1.1" id="Calque_1" xmlns="http://www.w3.org/2000/svg" xmlns:xlink="http://www.w3.org/1999/xlink" x="0px" y="0px"
	 viewBox="0 0 700 700" style="enable-background:new 0 0 700 700;" xml:space="preserve">
<path d="M297.8,3.6C203.5,3.6,115,48.8,59.6,125c-55.4,76.3-70.9,174.4-41.7,264C47,478.7,117.3,549,207,578.1
	c89.6,29.1,187.8,13.6,264-41.8l146.7,146.7c11.7,11.7,28.7,16.2,44.6,12c15.9-4.3,28.4-16.7,32.7-32.7c4.3-15.9-0.3-33-12-44.6
	L536.4,470.9C579.2,412,598.7,339.4,591,267c-7.6-72.4-41.8-139.4-96-188.1C440.9,30.2,370.6,3.4,297.8,3.6L297.8,3.6z M297.8,500.1
	c-53.6,0-105-21.3-142.9-59.2S95.7,351.6,95.7,298s21.3-105,59.2-142.9S244.2,96,297.8,96s105,21.3,142.9,59.2s59.2,89.3,59.2,142.9
	c-0.1,53.6-21.4,104.9-59.3,142.8C402.7,478.7,351.4,500,297.8,500.1z"/>
</svg>
